<svg xmlns="http://www.w3.org/2000/svg" viewBox="0 0 512 512"><path d="M311.8 312.4c-8.4 33.8-65.3 15.5-83.7 10.9l14.9-59.9c18.5 4.7 77.6 13.8 68.8 49zm-48.4-130.7L249.9 236c15.4 3.8 62.7 19.4 70.4-11.3 7.9-32-41.5-39.2-56.9-43zM504 256c0 137-111 248-248 248S8 393 8 256 119 8 256 8s248 111 248 248zm-184.5-93.3l11.1-44.7-27.2-6.8-10.8 43.5c-7.2-1.8-14.5-3.5-21.8-5.1l10.9-43.8-27.2-6.8-11.2 44.7c-5.9-1.3-11.7-2.7-17.4-4.1v-.1l-37.5-9.4-7.2 29.1s20.2 4.6 19.8 4.9c11 2.8 13 10 12.7 15.8l-30.5 122.5c-1.3 3.3-4.8 8.4-12.5 6.5.3.4-19.8-4.9-19.8-4.9l-13.5 31 35.4 8.8c6.6 1.7 13 3.4 19.4 5L180.9 394l27.2 6.8 11.2-44.7c7.4 2 14.6 3.9 21.7 5.6l-11.1 44.5L257 413l11.3-45.1c46.4 8.8 81.3 5.2 96-36.7 11.8-33.8-.6-53.3-25-66 17.8-4.1 31.2-15.8 34.7-40 4.9-33-20.2-50.7-54.5-62.5z"/></svg>