<svg xmlns="http://www.w3.org/2000/svg" viewBox="0 0 512 512"><path d="M353.1 193.7h2.8l-6.5 15.1c-2 0-2.8-.4-3-.4-.2-.2-1-1.7-1-7.1 0-4.8 1-6.5 1.2-6.7.2-.2 1.5-.9 6.5-.9zM512.5 94c-.1-16.6-13.5-30-30.1-30h-452C13.8 64 .4 77.4.4 94v111c8-18.7 16.4-38.3 19.2-45H55c3.9 9 1.4 3.3 8.1 18.8V160h41c2.6 5.5 9.9 21.4 12.4 26.8 5.1-12.2 8.9-21.4 11.2-26.8h91.9c0-.1 10.2 0 10.3 0 38.9.3 47.8-.7 57.4 4.8V160h35.6v8.3c6.7-5.4 15.9-8.3 27.4-8.3h24.6c0 .4 1.7.2 2.1.2h28.9c3.7 8.8 2.3 5.3 7.8 18.4v-18.4h38.6c4.3 7.1-1-1.6 10 16.4v-16.4h35.6v82.1h-37.1c-4.8-8-1.2-2-11.8-19.6v19.6h-47.1c-5.7-13.2-.1-.3-5.9-13.7h-17c-3.7 9-1.9 4.7-5.7 13.7h-23.9c-11 0-19.8-2.7-26.5-7.9v7.9h-59.3c-.2-12.4-.1-22.2-.1-22.2-1.6-.2-3-.2-8.8-.2v22.4H133.8v-10.2c-2.2 5-2.3 5.3-4.5 10.2H103c-3.5-8-2.5-5.7-4.5-10.2v10.2H51.2c-3.8-9-2-4.7-5.7-13.7h-17c-3.7 9-1.9 4.7-5.7 13.7H.5V418c0 16.6 13.4 30 30 30h452c16.6 0 30-13.4 30.1-30v-73.9c-11.3 6.6-29.1 4.8-59.2 4.8v-4c-9.7 5-3.5 4-139.8 4 0-22.5.1-21.3 0-22.5-1.5-.1-2.8-.1-8.4-.1 0 16-.1 6.1-.1 22.6h-35.3c0-10.8.1-13.7.1-26-8.9 5.3-20.3 5.7-30.6 5.5 0 13.1-.1 7.4-.1 20.5h-43.6c-4.5-5-2.4-2.8-13.7-15.5-2.9 3.1-11.5 12.3-14.4 15.5H94.4v-82.4h74.1c4.5 5 2.5 2.7 13.8 15.3 2.8-3.1 10.9-12 14-15.3H248c8.8 0 16 1.7 21.7 5v-5c48.5 0 57.3-1.3 67.5 4.5v-4.5H407v4.6c10.2-6.1 17.5-4.6 57.9-4.6v4.5c9.1-5.3 14.7-4.6 47.6-4.5V94zm-78.1 232.5h-28.7l-.1 13.2h28.7c13.2 0 23.3-5 23.3-19.6 0-29.7-38.3-10-38.3-23.5 0-5 4.3-5.7 8.2-5.7h27.1v-13h-29.7c-11.4 0-21 5.9-21 18.5 0 29.4 38.1 11.2 38.1 24.4.2 4.8-3.9 5.7-7.6 5.7zm-37.6-35.8v-12.8h-49.3l-.1 61.8h49.3l.1-12.8-34.4-.2v-12.3h33.8v-12.5h-33.8v-11.2h34.4zm88.5.2h26.8v-13h-29.3c-11.4 0-21.2 5.9-21.2 18.5 0 29.4 38.1 11.4 38.1 24.4 0 4.6-3.9 5.7-7.5 5.7h-28.5l-.1 13.2h28.5c7.5 0 15.7-1.6 20.1-8v-23c-9.4-12.3-35-1.1-35-12.1-.1-5 4-5.7 8.1-5.7zm-341.1-57.7v-48.4l-21.4 48.4h-13l-21.4-48.4v48.4H58.2l-5.7-13.7H21.7L16 233.2H0l26.5-61.8h21.9l25 58.6v-58.6h24.2l19.4 42 17.6-42h24.6v61.8h-15zm-97-26.5L37 182.1l-10 24.6h20.2zm172.5-22.3v-13h-49.5v61.8h49.5v-12.8H185v-12.3h33.8v-12.5H185v-11.2h34.7zm59 20.3c8.4 3 9.8 8.2 9.8 16.4v12.1h-14.8c-.2-13.2 3.2-22.4-13.2-22.4h-16v22.4h-14.6v-61.8l34.9.2c11.9 0 24.4 1.8 24.4 16.4 0 7.1-3.9 13.9-10.5 16.7zm-5.9-13.7c0-5.7-5-6.6-9.6-6.6h-18.7v13.7H263c5 0 9.8-1.2 9.8-7.1zm56 120c8.2 3 9.8 8.4 9.8 16.4l-.1 12.3h-14.8l.1-10.3c0-10.5-3.4-12.3-13.2-12.3h-15.7l-.1 22.6H280l.1-61.8h35.1c11.6 0 24.2 2.1 24.2 16.7-.1 6.8-3.7 13.6-10.6 16.4zm-5.7-13.7c0-5.7-5-6.6-9.6-6.6h-18.7v13.9h18.5c5 0 9.8-1.2 9.8-7.3zm-50.2.9c0 24.9-27.1 20.8-44 20.8l-.1 20.8h-28.7l-18.2-20.5-19 20.5h-58.4l.1-61.8h59.3l18.2 20.3 18.7-20.3H248c14-.1 24.9 4.7 24.9 20.2zm-100.5 10.5l-16-18h-37.2v11.2h32.4v12.5h-32.4v12.3h36.3l16.9-18zm41.7-24.2l-22.6 24.4 22.6 25.1v-49.5zm43.1 13.7c0-5.5-4.1-7.5-9.1-7.5h-19.2v15.7h18.9c5.3 0 9.4-2.5 9.4-8.2zm107.5-113.4c-15.5-.2-29.7-3.6-29.7 17.6 0 10.5 2.5 17.8 14.4 17.8h6.6l21-48.6h22.1L424 230v-58.4h22.6l26 42.9v-42.9h15.1v61.6h-21l-27.8-46.3v46.3h-30.1l-5.9-13.7h-30.6l-5.7 13.7h-17.1c-20.3 0-29.4-10.5-29.4-30.3 0-20.8 9.4-31.5 30.3-31.5h14.4v13.4zm12.8 21.9h20.3l-10-24.6-10.3 24.6zm-64.8-35.3h-15.1v61.8h15.1v-61.8z"/></svg>