<svg xmlns="http://www.w3.org/2000/svg" viewBox="0 0 512 512"><path d="M482 64H30C13.4 64 0 77.4 0 94v324c0 16.6 13.4 30 30 30h452c16.6 0 30-13.4 30-30V94c0-16.6-13.4-30-30-30zm-54.6 118.6c19.8 0 46.3-3.6 46.3 21.3 0 11-5.8 18.1-16.4 20.3l22.6 30.2h-17.2l-19.4-28.7h-1.9v28.7h-14v-71.8zm-48.9 0h39.6v12.3h-25.6v15.9h24.8v12.1h-24.8v19.4h25.6v12.1h-39.6v-71.8zm-60.1 0l19.2 48.3 19.4-48.3h15.3l-31 73.7h-7.5l-30.6-73.7h15.2zm-48.9-2.6c21.5 0 39 17.5 39 39s-17.5 39-39 39-39-17.5-39-39c0-21.6 17.4-39 39-39zm-43.1 5.4V202c-17.6-17.6-40.9-4.2-40.9 16.6 0 21.9 24.1 33.7 40.9 16.8V252c-25.9 12.5-55.4-4.9-55.4-33.4 0-27.3 28.9-46.4 55.4-33.2zM52.5 254.3H32v-71.8h20.5c22.8 0 38.6 14.9 38.6 36-.1 16.3-11.6 35.8-38.6 35.8zm59 0h-14v-71.8h14v71.8zm5.4-11.8l9.1-8.6c3.2 6.2 8.6 9.5 15.3 9.5 10 0 19.6-13.4-3-21.5-13.1-4.7-17.7-9.9-17.7-19.8 0-20.3 26.8-27.4 43.5-12.5l-7.3 9.5c-9.1-10.2-21.8-5.5-21.8 2.2 0 3.9 2.4 6 10.8 9.1 15.9 5.8 20.7 11 20.7 22.4 0 25.7-34 32.5-49.6 9.7zM496 417c0 8.2-6.8 15-15 15H128c189.6-35.6 334.7-123.2 368-144v129zM76.6 218.6c0 6.9-2.8 13.6-7.8 18.1-4.3 3.9-10.1 5.6-19.2 5.6H46v-47.4h3.7c9.1 0 14.7 1.5 19.2 5.8 4.9 4.3 7.7 11 7.7 17.9zm368.9-2.8h-4.1V194h4.3c8.8 0 13.6 3.7 13.6 10.6 0 7.3-4.7 11.2-13.8 11.2z"/></svg>