<svg xmlns="http://www.w3.org/2000/svg" viewBox="0 0 512 512"><path d="M430.8 278.3c0 7.9-5.2 13.6-11.8 14.9-2.4.6-2.7.4-37.4.4V263c34.5 0 34.9-.2 37.4.4 6.5 1.4 11.8 7.3 11.8 14.9zM512 94v324c0 16.6-13.4 30-30 30H30c-16.6 0-30-13.4-30-30V94c0-16.6 13.4-30 30-30h452c16.6 0 30 13.4 30 30zM163.2 200.2h-49.9c0 58.7 9.4 96-31.3 96-17.1 0-33.9-5-50.1-12.9v24.5c26.2 7.2 59.5 7.2 59.5 7.2 85.7.1 71.8-41.6 71.8-114.8zm156.2 4c-55.5-14-144.4-13-144.4 51.8 0 67.5 94.7 64.4 144.4 51.8v-24.7c-41.7 21.6-94.1 19.2-94.1-27.1 0-46.4 52.3-48.6 94.1-27.3v-24.5zM480 282.7c0-16.2-14.4-26.7-33.2-28v-.7c17.1-2.4 26.5-13.6 26.5-26.5 0-16.6-13.8-26.2-32.4-27.1 0 0 5.5-.2-105.2-.2v111.6H443c21.2 0 37-11.4 37-29.1zm-64.8-37.2c6.3-1.1 11.6-6.1 11.6-13.8 0-7.7-5.2-12.9-11.6-14 0 0 2.3-.2-33.7-.2v28.2c30.9 0 32.7.2 33.7-.2z"/></svg>