<svg xmlns="http://www.w3.org/2000/svg" viewBox="0 0 512 512"><path d="M159.2 398.1c0 6.3-4 10.8-10 10.8-6.5 0-10.3-4.8-10.3-10.8 0-6 3.8-10.8 10.3-10.8 6 0 10 4.8 10 10.8zm197.6-10.8c-6.3 0-10 4.8-10 10.8 0 6 3.8 10.8 10 10.8s10.3-4.5 10.3-10.8c0-6-4-10.8-10.3-10.8zm-99.3-.2c-5 0-8 3.3-8.8 8h17.6c-.8-5.2-4-8-8.8-8zm196.8 24.3c0 .3.3.5.3 1 0 .3-.3.5-.3 1-.3.3-.3.5-.5.8-.3.3-.5.5-1 .5-.3.3-.5.3-1 .3-.3 0-.5 0-1-.3-.3 0-.5-.3-.8-.5-.3-.3-.5-.5-.5-.8-.3-.5-.3-.8-.3-1 0-.5 0-.8.3-1 0-.5.3-.8.5-1 .3-.3.5-.3.8-.5.5-.3.8-.3 1-.3.5 0 .8 0 1 .3.5.3.8.3 1 .5.3.3.3.5.5 1zm-2 1.3c.5 0 .5-.3.8-.3.3-.3.3-.5.3-.8 0-.3 0-.5-.3-.8-.3 0-.5-.3-1-.3h-1.5v3.3h.8v-1.3h.3l1 1.3h.8l-1.2-1.1zm-27.1-25.4c-6.3 0-10.3 4.8-10.3 10.8 0 6 4 10.8 10.3 10.8 6 0 10.3-4.5 10.3-10.8 0-6-4.2-10.8-10.3-10.8zM512 94v324c0 16.6-13.4 30-30 30H30c-16.6 0-30-13.4-30-30V94c0-16.6 13.4-30 30-30h452c16.6 0 30 13.4 30 30zM49.7 223.4c0 70.5 57.2 127.6 127.6 127.6 25.1 0 49.6-7.5 70.5-21.3-67.2-54.7-66.7-157.7 0-212.4-20.9-13.8-45.5-21.3-70.5-21.3-70.5 0-127.6 57.2-127.6 127.4zM256 323.7c64.9-50.6 64.7-149.4 0-200.3-64.7 50.8-64.9 149.6 0 200.3zm-131.1 70.2c0-8-5.3-13.3-13.5-13.5-4.3 0-8.8 1.3-11.8 6-2.3-3.8-6-6-11.3-6-3.5 0-7 1.3-9.8 5v-4H71v33.8h7.5c0-17.4-2.3-27.8 8.3-27.8 9.4 0 7.5 9.4 7.5 27.8h7.3c0-16.8-2.3-27.8 8.3-27.8 9.4 0 7.5 9.3 7.5 27.8h7.5v-21.3zm41.3-12.6H159v4c-2.5-3-6-5-10.8-5-9.5 0-16.8 7.5-16.8 17.8s7.3 17.8 16.8 17.8c4.8 0 8.3-1.8 10.8-5v4.3h7.3c-.1-21.7-.1-12.5-.1-33.9zm37.4 23.6c0-13.9-21.1-7.5-21.1-14 0-5.3 10.9-4.4 17-1l3-6c-8.7-5.6-27.8-5.5-27.8 7.5 0 13.2 21.1 7.6 21.1 13.8 0 5.8-12.5 5.4-19.1.8l-3.3 5.8c10.5 7 30.2 5.5 30.2-6.9zm32.6 8.5l-2-6.3c-3.5 1.9-11.3 4-11.3-3.8V388h12v-6.8h-12V371h-7.5v10.3h-7v6.8h7v15.3c0 16.2 15.9 13.3 20.8 10zm12.3-12.3h25.3c0-14.9-6.8-20.8-16-20.8-9.8 0-16.8 7.3-16.8 17.8 0 18.8 20.8 22 31.1 13l-3.5-5.5c-7.2 5.9-18.1 5.4-20.1-4.5zm54.4-19.8c-4.2-1.8-10.7-1.7-14 4v-4h-7.5v33.8h7.5V396c0-10.7 8.7-9.3 11.8-7.8l2.2-6.9zm9.8 16.8c0-10.5 10.7-13.9 19.1-7.8l3.5-6c-10.7-8.4-30.1-3.8-30.1 13.8 0 18.2 20.6 21.9 30.1 13.8l-3.5-6c-8.6 6.2-19.1 2.6-19.1-7.8zm61.4-16.8h-7.5v4c-7.6-10.2-27.6-4.5-27.6 12.8 0 17.7 20.7 22.8 27.6 12.8v4.3h7.5v-33.9zm31.1 0c-2.2-1.1-10.1-2.7-14 4v-4h-7.3v33.8h7.3V396c0-10.2 8.3-9.5 11.8-7.8l2.2-6.9zm37.1-13.8H435v17.8c-7.5-10.1-27.6-4.7-27.6 12.8 0 17.9 20.7 22.7 27.6 12.8v4.3h7.3v-47.7zm7-69.2v4.3h.8v-4.3h1.8v-.8h-4.3v.8h1.7zm6 114.1c0-.5 0-1-.3-1.5-.3-.3-.5-.8-.8-1-.3-.3-.8-.5-1-.8-.5 0-1-.3-1.5-.3-.3 0-.8.3-1.3.3-.5.3-.8.5-1 .8-.5.3-.8.8-.8 1-.3.5-.3 1-.3 1.5 0 .3 0 .8.3 1.3 0 .3.3.8.8 1 .3.3.5.5 1 .8.5.3 1 .3 1.3.3.5 0 1 0 1.5-.3.3-.3.8-.5 1-.8.3-.3.5-.8.8-1 .3-.5.3-1 .3-1.3zm3-114.8H457l-1.5 3.3-1.5-3.3h-1.3v5h.8v-3.8l1.5 3.3h1l1.3-3.3v3.8h1v-5zm4-74.2c0-70.2-57.2-127.4-127.6-127.4-25.1 0-49.6 7.5-70.5 21.3 66.4 54.7 67.4 158 0 212.4 20.8 13.8 45.6 21.3 70.5 21.3 70.5 0 127.6-57.2 127.6-127.6z"/></svg>