<svg xmlns="http://www.w3.org/2000/svg" viewBox="0 0 512 512"><path d="M338.8 221.3c0 16.9-12.8 15.5-26.2 16l3.7-23.4c.2-1.5 1.3-2.4 2.8-2.4 9.2 0 19.7-.8 19.7 9.8zm-186 19c-21.5 0-27.1 32.4-5 32.4 22.5 0 26.7-32.4 5-32.4zm248.5 0c-21.5 0-27.1 32.4-4.8 32.4 22.2 0 26.6-32.4 4.8-32.4zM67.5 213.9l-3.7 23.4c13.6-.4 23.9 1 26-12.7 3-17.4-21.8-14.2-22.3-10.7zM512.1 94v324c-.1 16.6-13.5 30-30.1 30H30c-16.6 0-30-13.4-30-30V94c0-16.6 13.4-30 30-30h452c16.6 0 30 13.4 30.1 30zM116.3 216.5c0-29.9-33.4-24.5-65.4-24.5-2.2 0-4.4 1.7-4.6 4.2l-14.2 89.2c-.2 1.8 1.1 3.5 2.8 3.5h16.6c2.4 0 4.6-2.6 4.8-5l3.9-23.3c.9-6.3 11.6-4.2 15.7-4.2 25.1.1 40.4-14.7 40.4-39.9zm73.7 7.7h-16.6c-3.3 0-3.5 4.8-3.7 7.2-13-19.2-58.6-6.8-58.6 30.8 0 31.1 35 35.7 51 17.8-1.2 3.5-1.8 8.9 2 8.9h15.1c5.6 0 4.7-4.1 13.8-61.2.1-1.8-1.2-3.5-3-3.5zm35.5 85.6l55.8-81.1c.4-.4.4-.9.4-1.5 0-1.5-1.3-3.1-2.8-3.1H262c-1.5 0-3.1.9-3.9 2.2l-23.2 34.1-9.6-32.8c-.7-2-2.6-3.5-4.8-3.5H204c-1.5 0-2.8 1.5-2.8 3.1 0 1.1 17.1 49.7 18.6 54.3-2.4 3.3-17.9 25-17.9 27.6 0 1.5 1.3 2.8 2.8 2.8h16.8c1.6.1 3.1-.8 4-2.1zm139.3-93.3c0-18.4-14.2-24.5-30.4-24.5h-34.8c-2.4 0-4.6 1.7-4.8 4.2l-14.2 89.2c-.2 1.8 1.1 3.5 2.8 3.5h17.9c1.7 0 3.1-1.3 3.5-2.8l3.9-25.4c.9-6.3 11.6-4.2 15.7-4.2 25.1 0 40.4-14.8 40.4-40zm73.7 7.7h-16.6c-3.3 0-3.5 4.8-3.7 7.2-4.8-7.4-12.2-8.7-20.8-8.7-21.4 0-37.8 18.8-37.8 39.6 0 17.1 10.7 28.2 27.8 28.2 8.1 0 17.9-4.3 23.2-10.4-.2 1.3-.9 4.1-.9 5.4 0 2 .9 3.5 2.8 3.5h15.1c2.4 0 4.4-2.6 4.8-5l9-56.3c.2-1.8-1.1-3.5-2.9-3.5zm41.6-29.1c0-1.7-1.3-3.1-2.8-3.1H461c-1.3 0-2.6 1.1-2.8 2.4l-14.2 91-.2.4c0 1.5 1.3 3.1 3.1 3.1h14.4c2.2 0 4.4-2.6 4.6-5l14.2-88.7v-.1z"/></svg>