<svg xmlns="http://www.w3.org/2000/svg" viewBox="0 0 512 512"><path d="M456.8 246.4h-24c.9-14.6 4.8-21.4 12.2-21.4 7.4 0 11.4 7 11.8 21.4zm-120.4-12.2V283c2.6 1.3 5.7 2 8.9 2 12.7 0 15.9-18.1 15.9-30.8.1-33.3-15.9-29.3-24.8-20zM512.1 94v324c-.1 16.6-13.5 30-30.1 30H30c-16.6 0-30-13.4-30-30V94c0-16.6 13.4-30 30-30h452c16.6 0 30 13.4 30.1 30zM116.7 275.8c0-34.7-44.1-30-44.1-43.2 0-11 25.1-3.6 35.3 1.5l3.9-24.4C83.6 196.2 42 200.4 42 234.8c0 17.9 10.9 25.7 28.8 32.1 22.1 8.1 17.1 18.3 4.8 18.3-8.3 0-22-4.1-31-9.4l-3.9 24.6c22.5 12.8 76 17.5 76-24.6zm47.6-46.9h16.8l4.1-24.2h-20.9v-29.4l-28.1 4.6-3.9 24.9-10 1.7-3.7 22.5H132c0 49.8-2.5 63.9 9.6 73.9 10.6 8.4 28.1 7.3 41.4 4.1v-25.7c-2 .4-6.5 1.5-9.6 1.5-11.9 0-9.1-8.4-9.1-53.9zm85.7-24.8c-13.2-2.6-22.4 3.2-25.5 12.9l-2.2-12.2h-28.6v102.7h32.7v-66.7c6.5-7.9 19.5-7.1 23.6-6.3v-30.4zm40.8.6h-32.7v102.7h32.7V204.7zm.9-27.5c0-9.6-7.6-17.2-17.2-17.2s-17.2 7.6-17.2 17.2 7.6 17.5 17.2 17.5c9.5 0 17.2-7.9 17.2-17.5zm102.1 75.9c0-17.5-3.3-30.8-9.8-39-5.9-7.6-14-11.3-24.2-11.3-9.4 0-17.7 3.9-25.5 12.2l-1.7-10.3h-28.8v140.7l32.7-5.5V307c5 1.5 10.3 2.4 14.8 2.4 8.1 0 20.1-2.2 29.2-12.2 8.9-9.6 13.3-24.4 13.3-44.1zm51.9-50.3c-27.9 0-45.2 20.5-45.2 53.7 0 68.6 67.5 55.3 83.8 44.3l-3.5-22.5c-9.5 5.1-44.9 17.6-47.8-11.8h54.1c4.8-33.3-7.8-63.7-41.4-63.7z"/></svg>