<svg xmlns="http://www.w3.org/2000/svg" viewBox="0 0 512 512"><path d="M407.5 240.8s6.4 31.2 7.8 37.7h-28c2.8-7.5 13.5-36.5 13.5-36.5-.1.3 2.8-7.6 4.4-12.5l2.3 11.3zM512.1 94v324c-.1 16.6-13.5 30-30.1 30H30c-16.6 0-30-13.4-30-30V94c0-16.6 13.4-30 30-30h452c16.6 0 30 13.4 30.1 30zM141.2 324.6l53-130.2h-35.6l-33 88.9-3.6-18-11.8-59.9c-1.9-8.3-7.9-10.7-15.3-11H40.6L40 197c13.2 3.4 25.1 8.3 35.4 14.3l30 113.2h35.8zm79.1.1l21.1-130.3h-33.7l-21.1 130.3h33.7zm117.4-42.6c.1-14.8-8.9-26.2-28.3-35.5-11.8-6-19-10-19-16.1.1-5.5 6.1-11.2 19.4-11.2 11-.3 19 2.4 25.1 5l3 1.4 4.6-28.1c-6.6-2.6-17.2-5.5-30.2-5.5-33.3 0-56.7 17.7-56.9 43.1-.3 18.7 16.8 29.1 29.5 35.4 13 6.4 17.5 10.5 17.5 16.2-.1 8.7-10.5 12.8-20.2 12.8-13.5 0-20.7-2.1-31.6-6.9l-4.4-2.1-4.7 29.3c7.9 3.6 22.5 6.8 37.6 6.9 35.3-.2 58.3-17.6 58.6-44.7zm118.4 42.6l-27.2-130.3h-26.1c-8 0-14.1 2.4-17.6 10.8l-50.1 119.5h35.4s5.8-16.1 7.1-19.6h43.3c1 4.6 4 19.6 4 19.6h31.2z"/></svg>