<svg xmlns="http://www.w3.org/2000/svg" viewBox="0 0 512 512"><path d="M501 242l-46.8-81c1-2 1.8-4.2 1.8-6.7 0-7.5-6.2-13.8-13.7-14l-51.8-89.5c.5-1.5 1-3 1-4.5 0-8-6.5-14.2-14.2-14.2-4.5 0-8.3 2-11 5.3h-99.5C264.3 34 260.5 32 256 32c-4.5 0-8.3 2-10.7 5.3h-99c-2.8-3.3-6.5-5.3-11-5.3-7.7 0-14.2 6.2-14.2 14.2 0 1.5.5 3.3 1 4.5l-52.3 90.8c-5 2.2-8.5 7-8.5 12.7 0 .5.3 1 .3 1.5l-49.8 86C5 243 0 248.8 0 255.7c0 6.8 4.7 12.5 11.3 14l51.5 89c-.5 1.5-.8 2.7-.8 4.5 0 6.8 4.7 12.5 11.3 13.7l48.3 83.8c-.5 1.5-1 3.3-1 5 0 8 6.5 14.2 14.2 14.2 4.5 0 8.3-2 10.7-5h99.8c2.5 3 6.5 5 10.7 5s8.3-2 10.7-5h100c2.5 2.7 6.2 4.5 10.2 4.5 8 0 14.2-6.5 14.2-14.2 0-1.5-.2-2.7-.7-4l48.3-84.3c6.5-1.2 11.3-7 11.3-13.7 0-1.5-.3-3-.8-4.5l51.3-89c6.5-1.2 11.5-7 11.5-14 0-6.7-4.7-12.4-11-13.7zM130.5 437.7L89.8 367h40.7v70.7zm0-78.2H89.8c-.3-1-.8-2-1.2-3l42-44.2v47.2zm0-58.2l-47 49.8c-1.2-.5-2.5-1.3-3.8-1.5l-52-90c.5-1.2.5-2.5.5-3.8 0-1.2 0-2.2-.3-3.3l48.5-84c2.5-.3 5-1 7.3-2.5l46.7 48.5v86.8zm0-95.6l-42.7-44.2c1.2-2 2-4.5 2-7.2 0-.3-.3-.8-.3-1l41-14.8v67.2zm0-75.2l-40.7 14.8 40.7-70.5v55.7zM435.3 167l.8 1.2-33 156-59.5-62.7 91.5-94.8.2.3zM259.5 348.5l10.7 11H249l10.5-11zm-.2-10.5l-77.7-79.7 74.2-78.8 77.5 81.8-74 76.7zm5 5.5l74-76.8 63 66.5-5.5 26.2H280l-15.7-15.9zm106-285c1 .5 2 1 3.2 1.3l54 94v.5c0 2.7.7 5.2 2 7.2l-91 94.5-77.5-81.8L370.3 58.5zm-8.5-2l-106 112.3-53.3-56.3 155.3-56h4zm-115.3 0c2.5 2.5 5.7 4 9.5 4s7-1.5 9.5-4h70l-138.5 50-47.5-50h97zM138 61.7l1-2c1-.3 1.8-.5 2.5-.8l47.7 50.3-51.2 18.5v-66zm0 74l56.7-20.5 55.7 59-74.2 78.5-38.2-39.2v-77.8zm0 86.5l34 35.3-34 35.8v-71.1zm0 82.1l39.2-41.5 77.3 80.3-16 16.5H138v-55.3zm6.5 151.2c-1.5-1.5-3.3-2.5-5.5-3.3l-1-1.5V367h93.2l-85.5 88.5h-1.2zm121.3 0c-2.5-2.2-6-4-9.8-4s-7.2 1.8-9.8 4h-90l85.5-88.5h35.8l85.5 88.5h-97.2zm112-11l-4 7c-1.2.3-2.2.7-3.2 1.2L287.2 367H394l-16.2 77.5zm11.9-20.8l12-56.7h20.5l-32.5 56.7zm32.5-64.2h-19l4.2-19.7 16 17c-.4.7-.9 1.7-1.2 2.7zM484 259.3l-51.8 90.3c-1.2.5-2.5 1-3.8 1.7l-19.3-20.5 32.3-153 42.7 74c-.2 1.2-.7 2.5-.7 4 .1 1.2.4 2.2.6 3.5z"/></svg>