<svg xmlns="http://www.w3.org/2000/svg" viewBox="0 0 448 512"><path d="M13.1 335.1c-86.7-277.7 278.9-405 411-207.3 10.8 16.1 23.1 44.4 23.9 58.8C356.7-17.2-28.7 58 13.1 335.1zm280.9-231c-10.5 1-4.9 3.3-3.6 3.3 81.1 21.9 146.1 80.2 141.7 165.4-4.4 85.5-78.4 133.4-148.6 152.6C504.2 421.8 497 110.9 294 104.1zm138.1 268.4C308.2 544.5-2 417.6 52.1 199.7c-8.5 27.7-16.7 47.2-17.4 76.2-6.9 227.7 328.4 272.1 401 96.6 2.3-5.8 1-6.3-3.6 0zm-62.7-113.3c0 71.4-58.5 129.4-130.6 129.4s-130.6-58-130.6-129.4 58.5-129.4 130.6-129.4c72.1.1 130.6 58.1 130.6 129.4zm-31.8-31.5c9-13.6-1.5-48.2-32.8-68.6-31-20.4-70.8-18.9-80-5.3-9 13.4 10.3 4.8 45.4 17.7 57.9 21.2 58.4 69.8 67.4 56.2z"/></svg>