<svg xmlns="http://www.w3.org/2000/svg" viewBox="0 0 448 512"><path d="M416 348c-1.8 10.8-13.7 110-15.5 132-117.9-4.3-219.9-4.7-368.5 0v-25.5c45.5-8.9 60.6-8 61-35.2 1.8-72.3 3.5-244.1 0-322-1-28.5-12.1-26.8-61-36V35.8c73.9 2.4 255.9 8.6 363-3.8-3.5 38.2-7.7 126.5-7.7 126.5H364C352.9 115.7 345.2 68 309.3 68h-137c-10.2 0-10.7 3.5-10.7 9.7v163.8c58 .5 88.5-2.5 88.5-2.5 29.8-1 27.6-8.5 40.8-65.3h25.7c-4.4 101.4-3.9 61.8-1.8 160.3H289c-9.2-40.1-9.1-61-39.5-61.5 0 0-21.5-2-88-2v139c0 26 14.2 38.2 44.2 38.2H295c63.6 0 66.6-25 98.8-99.8H416z"/></svg>