<svg xmlns="http://www.w3.org/2000/svg" viewBox="0 0 448 512"><path d="M428 283h-24c-2.3 0-4 1.8-4 4v28h-32V159c0-2.3-1.8-4-4-4h-24c-2.3 0-4 1.8-4 4v28h-32v-28c0-2.3-1.8-4-4-4h-24c-2.3 0-4 1.8-4 4v28h-32v-28c0-5.3-7-4-10.3-4v-33.2c7.3-1.8 15-3 22.5-3 9.5 0 18.3 3.7 27.5 3.7 4 0 24.3-1 24.3-7V63c0-2.3-1.8-4-4-4-4.5 0-13.2 3.8-21 3.8-8.5 0-18.3-3.8-28.5-3.8-7 0-14 1-20.7 2.5v-4.2c4.7-2.3 8-7.2 8-12.5 0-18.1-27.5-18.2-27.5 0 0 5.3 3.3 10.2 8 12.5V155c-3.3 0-10.3-1.2-10.3 4v28h-32v-28c0-2.3-1.8-4-4-4h-24c-2.3 0-4 1.8-4 4v28h-32v-28c0-2.3-1.8-4-4-4H84c-2.3 0-4 1.8-4 4v156H48v-28c0-2.3-1.8-4-4-4H20c-2.3 0-4 1.8-4 4v192h160v-84c0-63.5 96-63.5 96 0v84h160V287c0-2.3-1.8-4-4-4zm-252-4c0 2.3-1.8 4-4 4h-24c-2.3 0-4-1.8-4-4v-56c0-2.3 1.8-4 4-4h24c2.3 0 4 1.8 4 4v56zm128 0c0 2.3-1.8 4-4 4h-24c-2.3 0-4-1.8-4-4v-56c0-2.3 1.8-4 4-4h24c2.3 0 4 1.8 4 4v56z"/></svg>