<svg xmlns="http://www.w3.org/2000/svg" viewBox="0 0 448 512"><path d="M422.8 171.7c9.5-21.5 18.7-52.9 18.7-76.9 0-63.6-69.7-86.1-183.5-33.8-94.2-6.3-184.9 64.5-207.5 163.1 27-30.5 68.5-72 106.8-88.5-47.5 42.3-88 95.8-118.8 151.5C20.3 320.4 0 374 0 414.1c0 86.2 81.3 75.7 157.7 36.8 27.5 13.5 58.3 13.6 89 13.6 85 0 161.2-47.5 189.7-127.8H330.8c-46 77.5-172.3 46.4-172.3-41.5h287.7c5.7-38.1-1.4-83.7-23.4-123.5zM56.5 335.5c15.5 44.8 47 83.9 87.8 107.9-77.7 42.8-151.7 25.4-87.8-107.9zM158 240.2c1.8-48.3 44-83 91-83 46.8 0 89.3 34.7 91 83H158zM319.5 76.1c18.8-9 42.5-19.2 63.5-19.2 27.5 0 47.5 19 47.5 47 0 17.5-6.5 42.9-12.8 59.4-23-37.1-57.7-71.5-98.2-87.2z"/></svg>