<svg xmlns="http://www.w3.org/2000/svg" viewBox="0 0 512 512"><path d="M457.8 239.2c-4.3-2.4-5.1-5.2-5.8-9.8-2.1-14.9-3.2-30.5-8.2-44.5C411.2 94.3 304.2 55 220 101.9c-24.8 13.8-44.4 33-59.4 57.9-2.9-1.4-4.9-2.5-7.1-3.3-27.3-11.3-53.5-9.2-77.3 8.3-23.1 17-33 40.4-29.6 69.3.3 2.7-1.8 6.9-4.1 8.7-36 27.2-50.8 70.8-38 112.9C17 397 56.6 428 100.2 429.5c27.5.9 55 .5 82.4.5 76.2 0 152.4.5 228.5-.4 47.7-.6 87.1-33.4 98.1-79.1 10.6-43.7-10-88.3-51.4-111.3zm19.1 142.2c-16.5 20.3-38.4 32-64.6 32.3-51.6.7-103.1.2-154.7.2 0 .6-147.8.1-148.4.1-39.8-.3-69.6-17.9-86.3-54.4-17.1-37.4-3.6-82.3 31-105.2 8.3-5.5 11.3-10.5 9.2-21-5-23.9 4-43.5 23.9-57.1 20.8-14.3 43-14.6 65.3-2.8 9.3 4.9 13.2 10.5 20.1-2.3 12.9-23.9 31.3-42.4 55-55.6 88.3-49.3 207 6.9 208.7 120.3.1 7.4 2.2 11.3 8.9 14.4 52.2 24.4 67.6 87.2 31.9 131.1zm-79.5-73c-5.3 28.2-31.4 49.9-60.4 49.9-15.4 0-29.1-5.9-40-16-25.1-23.3-64.5-68-87-84.6-18.2-13.5-38.1-11.2-54.6 3.4-45.3 39.9 14.4 110.4 60.8 70 4.1-3.6 7.1-8.6 11.6-11.6 7.4-5 18.8-.8 11.9 9.6-15.7 23.8-44.7 34.6-71.5 26.6-26.2-7.9-44.3-32.6-44.1-63.6 1.1-20.4 11.2-39 32.1-50.7 20.5-11.5 42-11.9 60.7 2.2 46 34.9 68.5 74.1 97.3 91.8 22.3 13.7 49.2 6.7 62.4-15.9 26.1-44.6-31.4-95.2-71.5-57.5-3.6 3.4-6.3 8.1-10.3 10.6-9.9 6.2-15.7-3.7-11.6-9.4 18.8-25.9 45.7-36.7 75.5-25.6 28.4 10.6 44.4 40.2 38.7 70.8z"/></svg>