<svg xmlns="http://www.w3.org/2000/svg" viewBox="0 0 512 512"><path d="M345.8 124.4l13.7 226.7-10-.3c-33-.8-65.3 8-93.5 25.5-28.2-17.5-60.5-25.5-93.5-25.5-41.5 0-74.7 9.8-112.5 25.2l28.5-235.3c26-10.7 56-16.5 84-16.5 37.5 0 67.3 12 93.5 38.7 25.2-25.5 53.7-37.8 89.8-38.5zM512 430.9c-23.2 0-43.3-4.7-64.3-14.2-31.2-14.2-63.7-22.8-98.2-22.8-35.5 0-68.3 11.8-93.5 37-25.2-25.2-58-37-93.5-37-34.5 0-67 8.5-98.2 22.8-20.3 9-40.8 14.2-63 14.2H0l38.8-318C74.5 92.6 118 81.1 159.2 81.1c33.8 0 68.5 7 96.8 26.5 28.2-19.5 63-26.5 96.8-26.5 41.2 0 84.7 11.5 120.5 31.7L512 430.9zm-39.5-40.8l-31-255.2c-28-12.7-61.3-19.5-92-19.5-35 0-67.8 11-93.5 35.3-25.8-24.3-58.5-35.3-93.5-35.3-30.7 0-64 6.8-92 19.5l-31 255.2c43-17.7 75.5-30.5 123-30.5 34.3 0 64.5 8.7 93.5 27 29-18.3 59.3-27 93.5-27 47.5 0 80 12.8 123 30.5z"/></svg>