<svg xmlns="http://www.w3.org/2000/svg" viewBox="0 0 448 512"><path d="M194 117.5c-5.7.6-3.7 5.7-6.9 5.7-2.8.3-2.2-6.3 6.9-5.7zm16.6.8c5.1-1.4 5.4 4 8.3 3.1 2.8-1.1 0-6.8-8.3-3.1zM395.2 472c-16.3 8.3-38 26.6-46 34.3-6 5.7-30.9 8.6-44.9 1.4-16.3-8.3-7.7-21.4-32.9-22.3-40.6-.9-46.8.3-70 .9-37.7.9-41.4 25.1-65.7 24.3-16.6-.6-37.4-13.7-73.4-21.1-25.1-5.1-49.4-6.6-54.6-17.7s6.3-23.7 7.1-34.6c.9-14.6-10.9-34.3-2.3-41.7 7.4-6.6 23.1-1.7 33.4-7.4 10.9-6.3 15.4-11.1 15.4-24.6 4 13.7-.3 24.9-9.1 30.3-5.4 3.4-15.4 5.1-23.7 4.3-6.6-.6-10.6.3-12.3 2.9-2.6 3.1-1.7 8.9 1.4 16.3s6.9 12.3 6.3 21.4c-.3 9.1-10.6 20-8.9 27.7.6 2.9 3.4 5.4 10.6 7.4 11.4 3.1 32.3 6.3 52.6 11.1 22.6 5.7 46 16 60.6 14 43.4-6 18.6-52.6 11.7-63.7-36.9-57.7-61.1-95.4-80.6-80.6-4.9 4-5.1-9.7-4.9-15.1.9-18.9 10.3-25.7 16-40.3 10.9-27.7 19.1-59.4 35.7-75.7 12.3-16 31.7-42 35.4-55.7-3.1-29.7-4-61.1-4.6-88.6-.6-29.4 4-55.1 37.1-73.1 19-10.2 61.6-7.8 85.4 9.7 22.3 16.6 36.3 51.7 34.6 76.9-1.1 19.7 2.3 40 8.6 61.1 7.4 24.9 19.1 42.3 38 62.3 22.6 24 40.3 71.1 45.4 101.1 4.6 28-1.7 45.4-7.7 46.3-9.1 1.4-14.9 30.3-43.4 29.1-18.3-.9-20-11.7-25.1-21.1-8.3-14.6-16.6-10-19.7 5.4-1.7 7.7-.6 19.1 2 27.7 5.1 18 3.4 34.9.3 55.7-6 39.4 27.7 46.9 50.3 28 22.3-18.6 27.1-21.4 55.1-31.1 42.6-14.6 28.3-27.4 5.4-35.1-20.6-6.9-21.4-41.4-14-48 1.7 37.1 21.1 42.6 29.1 47.7 35.4 21.7-12.9 39.7-33.7 50.2zM298 174c3.4.6 6-4 5.1-8-1.1-5.4-5.1-3.4-9.7-6.3-5.4-3.4-6.6-9.1-8.6-7.1-5.9 6.6 7.5 20.3 13.2 21.4zM248.6 46.6c2.6 2 4.3-3.1 9.7-5.1 1.4-.6 8 .3 9.4-2.9.3-1.4-3.4-3.1-6-5.1-2.3-2.3-4.6-4.3-6.9-4.3-5.7.6-2.9 6.6-3.7 9.4-1.1 3.1-5.4 5.7-2.5 8zM110.9 258.9c1.4.3 5.4-3.1 7.1-7.1 1.4-4.9 2.9-7.4.6-8.3-2.6-.9-2 4.3-4.6 8.3-2 3.7-7.1 6.5-3.1 7.1zm189.7 104c3.7-4.6 8.3-5.1 14.6-5.1.9-22.9 36-21.1 47.7-11.7 0-5.1-11.1-10-15.7-12 7.7-25.7 4.3-36-.9-60.3-4-18.3-20.9-43.1-34-50.9 3.4 2.9 9.7 11.1 16.3 23.7C340 268 351.4 299.8 344 326c-2.9 10.3-9.7 11.7-14.3 12-20 2.3-8.3-24-16.6-59.7-9.4-40-19.1-42.9-21.4-46-11.7-52-24.6-46.9-28.3-66.3-3.1-17.4 15.1-31.7-9.7-36.6-7.7-1.4-18.6-9.1-22.9-9.7-4.3-.6-6.6-28.9 9.4-29.7 15.7-1.1 18.6 17.7 15.7 25.1-4.6 7.4.3 10.3 8 7.7 6.3-2 2.3-18.6 3.7-20.9-4-24-14-27.4-24.3-29.4-39.4 3.1-21.7 46.6-25.7 42.6-5.7-6-22.3-.6-22.3-4.3.3-22.3-7.1-35.1-17.4-35.4-11.4-.3-16 15.7-16.6 24.9-.9 8.6 4.9 26.6 9.1 25.1 2.9-.9 7.7-6.6 2.6-6.3-2.6 0-6.6-6.3-7.1-13.7-.3-7.4 2.6-14.9 12.3-14.6 11.1.3 11.1 22.6 10 23.4-3.7 2.6-8.3 7.4-8.9 8.3-3.7 6-10.9 7.7-13.7 10.3-4.9 5.1-6 10.9-2.3 12.9 13.1 7.4 8.9 16 27.1 16.6 12 .6 20.9-1.7 29.1-4.3 6.3-2 26.6-6.3 30.9-13.7 2-3.1 4.3-3.1 5.7-2.3 2.9 1.4 3.4 6.9-3.7 8.6-10 2.9-20 8.3-29.1 11.7-8.9 3.7-11.7 5.1-20 6.6-18.9 3.4-32.9-6.9-20.3 5.4 4.3 4 8.3 6.6 19.1 6.3 24-.9 50.6-29.7 53.1-16.9.6 2.9-7.4 6.3-13.7 9.4-22.3 10.9-38 32.6-52.3 25.1-12.9-6.9-25.7-38.6-25.4-24.3.3 22-28.9 41.4-15.4 66.6-8.9 2.3-28.6 44.3-31.4 66-1.7 12.6 1.1 28-2 36.6-4.3 12.6-23.7-12-17.4-42 1.1-5.1 0-6.3-1.4-3.7-7.7 14-3.4 33.7 2.9 47.4 2.6 6 9.1 8.6 14 13.7 10 11.4 49.4 40.6 56.3 47.7 8.9 8.3 6.3 27.7-12 29.7 9.4 17.7 18.6 19.4 18.3 48.3 10.9-5.7 6.6-18.3 2-26.3-3.1-5.7-7.1-8.3-6.3-9.7.6-.9 6.3-5.7 9.4-2 9.7 10.9 28 12.9 47.4 10.3 19.7-2.3 40.9-9.1 50.6-24.9 4.6-7.4 7.7-10 9.7-8.6 2.3 1.1 3.1 6.3 2.9 14.9-.3 9.1-4 18.6-6.6 26.3-2.6 8.9-3.4 14.9 5.1 15.1 2.3-16 6.9-31.7 8-47.7 1.5-18.1-11.6-51.8 2.7-68.7zm-120.3-258c-.6 3.4-.3 5.7 2.3 5.7.3 0 .9 0 .9-.9 1.1-7.1-2.3-12.3-4-12.9-3.4-.9-2.9 4.3-1.1 3.7 1 .1 2.5 1.8 1.9 4.4zm64.9-9.7c-3.7.3-2.6 2-.9 2.6 2.3.6 4.6 4.6 5.1 8.9 0 .6 2.9-.6 2.9-1.4.3-7-5.7-10.4-7.1-10.1z"/></svg>