<svg xmlns="http://www.w3.org/2000/svg" viewBox="0 0 640 512"><path d="M423.3 151.7C415 66.7 343.1 0 255.8 0 183.6 0 119.6 46.5 96.6 114.1 42.1 122.1 0 168.9 0 225.7c0 62.3 50.7 113 113.2 113h289.6c52.3 0 95-42.4 95-94.7 0-45.2-32.1-83.1-74.5-92.3zm-20.4 144.6H113.2c-39 0-70.9-31.6-70.9-70.6s31.8-70.6 70.9-70.6c18.8 0 36.5 7.5 49.8 20.8 20 20 50.1-10.2 30.2-30.2-14.7-14.4-32.7-24.4-52.1-29.3 20-44.4 64.9-74 114.7-74 69.5 0 126 56.5 126 125.7 0 13.6-2.2 26.9-6.4 39.6-8.9 27.5 32.1 38.9 40.1 13.3 2.8-8.3 5-16.9 6.4-25.5 19.4 7.5 33.5 26.3 33.5 48.5.1 28.7-23.5 52.3-52.5 52.3zm235-52.4c0 44-12.7 86.4-37.1 122.7-4.2 6.1-10.8 9.4-17.7 9.4-16.3 0-27.1-18.8-17.4-32.9 19.4-29.3 29.9-63.7 29.9-99.1s-10.5-69.8-29.9-98.8c-15.7-22.8 19.4-47.2 35.2-23.5 24.3 35.8 37 78.2 37 122.2zm-70.9 0c0 31.6-9.1 62-26.9 88.3-4.2 6.1-10.8 9.1-17.7 9.1-17.2 0-27-19-17.4-32.9 13-19.1 19.7-41.3 19.7-64.5 0-23-6.6-45.4-19.7-64.5-15.8-23 19-47.1 35.2-23.5 17.7 26 26.8 56.5 26.8 88z"/></svg>