<svg xmlns="http://www.w3.org/2000/svg" viewBox="0 0 512 512"><path d="M464.9 410.6c0 9.2-12.5 15.5-25.6 11.8-9.7-2.6-24.9-14-28.8-21.7-4.5-9.2 3.2-26 15-24.5 12.6 1.3 39.4 20.2 39.4 34.4zM323.5 112.2c-3-57.4-80.2-63.4-100.2-18.7 35.5-19.3 71.8-12.5 100.2 18.7zm-237.1 264c-12.5 1.3-39.3 20.2-39.3 34.4 0 9.2 12.5 15.5 25.6 11.8 9.7-2.6 24.7-14 28.6-21.7 4.7-9.3-3.1-26-14.9-24.5zm396 11.4c.9 2.8 1.5 5.6 1.5 8.6.6 25.1-35.3 50.9-58.5 51.8-13.8.6-27.5-6.7-34-18.7-90.3 3.2-180.6 3.9-270.6 0-6.7 12-20.4 19.1-34.2 18.7-23-.9-58.9-26.7-58.5-51.8.2-3 .6-5.8 1.5-8.6-4.4-7.5-3.9-12.2 4.3-9.2 2.6-4.1 5.6-7.5 8.8-11-2-8.7 1-11.2 8.8-7.3 3.7-2.6 8-5.2 12.7-7.3 0-12.5 9.4-8.9 13.8-4.5 9.9-1.4 16 .6 21.3 4.5v-15.7c-10.3 0-32.3-9-36.5-28.8-4-16.5 2.1-30.3 20-37.8.6-4.7 6.4-11.2 11.8-12.7 6-1.5 9.9 3.7 11.2 8.2 5.9 0 14.1 1.2 16.8 6.4 4.3-.4 8.8-1.1 13.1-1.5-1.9-1.5-4.1-2.8-6.4-3.7-4.1-7.1-11-8.8-19.6-9.2 0-.6 0-1.3.2-2.1-15.7-.4-35-4.5-43.6-14.2-17-18.8-12.7-66.5 9.7-82.3 6.7-4.5 17.2-.6 18.1 7.7 1.9 16.4.3 21.3 20.9 20.6 6.4-6.2 13.3-11.6 21.1-15.9-11.8-1.1-23 1.3-34.8 3 10.1-9.9 19.1-20.2 45.1-33.7 18.7-9.5 39.8-16.6 60.6-18.5-14.8-6.2-31.8-9.5-47.5-13.1 60.8-12.9 138.9-17.6 194.3 29.9 14.4 12.3 25.8 28.8 34 47.7 31.7 3.9 29-4.4 30.7-20 .9-8.2 11.4-12.3 18.1-7.5 11.8 8.4 17.6 24.5 19.6 38.3 1.7 14.2.2 32.9-9.9 43.9-8.6 9.7-27.3 14-42.8 14.4v2.1c-8.8.2-16.1 1.9-20.4 9.2-2.4.9-4.5 2.1-6.7 3.7 4.5.4 9 1.1 13.3 1.5 1.5-4.5 10-6.7 16.8-6.7 1.3-4.3 5.4-9.5 11.2-8.2s11.2 8 11.8 12.7c8.6 3.4 17.6 9.7 20 20.4 1.5 6.4 1.3 12 .2 17.4-4.6 20.1-26.5 28.8-36.5 28.8 0 5.4 0 10.5-.2 15.7 6.4-4.8 13-5.7 21.3-4.5 4.7-4.7 14-7.5 14 4.5 4.5 2.1 9 4.7 12.7 7.3 8-4 10.9-.4 8.6 7.3 3.2 3.4 6.4 7.1 8.8 11 7.7-3 8.4 1.6 4 9.2zm-58.7-202.1c13.8 5.4 20.9 17.6 24.1 28.4.9-8.4-2.1-31.4-11-40.6-5.8-5.8-11.2-4.1-11.2.6 0 4.9-1.1 9.2-1.9 11.6zm-14.9 9.9c10.3 12.5 13.5 33.1 10.1 50.1 8.6-1.7 16.3-4.9 20.9-9.7 1.5-1.7 3-3.9 3.9-6-.9-17-8.2-34-23.6-38.9-2.7 2.6-7.4 3.8-11.3 4.5zm-17.4.6c6 16.3 9.9 34 11.4 51.4 2.8 0 6-.2 9.2-.6 4.7-19.3-.2-41.1-11.2-50.5-2.9-.1-6.4-.1-9.4-.3zM88.8 185.5c-.9-2.4-1.9-6.7-1.9-11.6 0-4.7-5.6-6.4-11.2-.6-9 9.2-11.8 32.2-11 40.6 3.2-10.8 10.3-23 24.1-28.4zm4.5 60c-3.4-17-.2-37.6 10.1-50.1-3.9-.6-8.6-1.9-11.2-4.5-15.5 4.9-22.6 21.9-23.6 38.9 1.1 2.1 2.4 4.3 3.9 6 4.4 4.9 12.2 8 20.8 9.7zm32.9-48.6c-4.1.9-8 2.4-11.8 3.9l-9.7 4.1v-.2c-5.8 11.2-8 27.3-4.3 42.1 3.7.4 6.9.6 10.1.6 1.9-17.6 7.3-34.8 15.7-50.5zm70-18.5c0 33.5 27.3 60.6 60.6 60.6s60.6-27.1 60.6-60.6c0-33.3-27.3-60.4-60.6-60.4s-60.6 27.1-60.6 60.4zm121.3 77.4c7.9 40.3 2.6 51.5 13.1 46.2 12.7-6.4 18.1-31.2 18.3-45.4-10.4-.6-20.9-.6-31.4-.8zm-57-.4v-.2c-.2 4.1.2 30.3 3.4 32.7 8.8 4.3 31.4 3.7 40.6.9 4.3-1.3 1.9-29.4 1.3-33.3-15-.4-30.2-.4-45.3-.1zm-11.2 0v-.2c-15.5.2-30.7.2-46 .6-1.5 7.3-3.7 38.9 1.5 41.1 10.3 4.5 33.1 4.1 43.4 1.3 3.7-2 2-36.2 1.1-42.8zm-68.1 45.7c4.3 1.9 6.9 1.9 7.7-3.4 1.5-6.9 1.9-29.2 3.9-41.5-9.7.2-19.6.6-29.2 1.3-4.3 15.7.2 35.9 17.6 43.6zm-52.2-8.8c34.8 37.4 73.7 68.1 124 84.7 53.7-15.3 92-47.7 129.8-85.1-8.8-3.4-6.1-8.2-5.8-9.2-7.1-.6-14.2-1.5-21.1-2.1-7.5 26.2-28.6 42.1-37.2 25.1-2.1-4.1-2.8-9.2-3.7-13.3-3 6.7-10.5 6.4-19.6 7.1-10.5.9-25.1 1.1-35-2.4-2.4 10.3-8.8 10.3-21.3 11.4-11.2 1.1-38.7 3.2-43.6-8.6-.9 22.8-27.9 8-35.9-5.6-2.6-4.5-4.3-9-5.6-14-6.2.6-12.5 1.3-18.7 2.1 2.1 3 1.3 7.2-6.3 9.9zm-10.1 120.8c-4.5-18.5-14.8-39.6-26.7-43-17.8-5.4-54.8 18.7-52.7 43.4 10.1 15.5 31.8 28.4 47.1 29 14.2.6 28.6-8.8 31.6-23 .4-1.8.7-4 .7-6.4zm5.8-4.7c26.7-15.5 55-28.4 84.3-37.4-30.7-16.3-54.2-38-77.4-61.3-1.7 1.1-4.1 1.9-6.2 2.8-1.3 3.9 6.9 4.2 4.3 9.9-1.7 3.2-6.9 6-12 7.3-1.7 2.1-4.1 3.9-6.2 5.2h-.2c-.2 10.7-.2 21.5.2 32.2 7 12.7 12.1 26.5 13.2 41.3zm255.1 10.1c-29.2-17-58.9-32.9-92-42.1-11 4.9-22.1 9-33.5 12.3-1.7.6-1.7.6-3.4 0-9.5-3-18.5-6.4-27.7-10.5-32 9.2-61.5 23.2-89.4 40.4h-.2v.2c.2 0 .2 0 .2-.2 82 3.1 164.1 2.7 246-.1zm21.5-50.9l-.2.2c.4-11 .6-21.9.6-32.9-2.4-1.3-4.5-3.2-6.4-5.4-5.2-1.1-10.3-4.1-12-7.1-1.5-3.2 1.1-6 4.7-8.2-.2-.4-.4-1.3-.4-1.9-2.4-.6-4.3-1.5-6-2.6-25.1 23.4-52 45.1-82.3 61 31 9.2 60.4 22.4 89 37.8.7-11.6 5.7-28.3 13-40.9zm18.5 2.5c-11.6 3.4-22.1 24.5-26.7 43 0 19 16.9 30.1 32.2 29.4 15.3-.6 37-13.5 47.1-29 2.4-24.7-34.5-48.7-52.6-43.4zm-161.6-211h.2-.2zm0 76.9c22.8 0 41.3-17.2 41.3-38.5 0-28.7-32.2-46.2-57.4-35.3 7.5 2.4 13.1 9.2 13.1 17.2 0 18.5-26.5 25.4-37 9-5.8 27.2 15.4 47.6 40 47.6zM81 429.5c.4 5.2 9.7 10.1 17.2 7.5 5.4-2.1 11.6-8.4 13.8-12.9 2.4-5.6-.9-15.9-7.7-14.6-7.1 1.3-23.7 13.3-23.3 20zm326.8-20c-6.7-1.3-9.9 9-7.5 14.6 1.9 4.5 8.2 10.7 13.8 12.9 7.3 2.6 16.8-2.4 17-7.5.5-6.7-16.2-18.7-23.3-20z"/></svg>