<svg xmlns="http://www.w3.org/2000/svg" viewBox="0 0 512 512"><path d="M435.3 240.8c2.5-10 3.5-20.3 3.5-30.5 0-75.5-61.5-137-137-137-63 0-118 43.3-133 104.3-12.5-10.7-28.5-16.7-45-16.7-37.8 0-68.5 30.7-68.5 68.5 0 6 .8 12.2 2.5 18.2C22.8 264 0 299.5 0 338.3c0 55.5 45.3 100.5 100.5 100.5h311c55.2 0 100.5-45 100.5-100.5 0-46.1-31.7-86.5-76.7-97.5zM158 374.8c0 6.8-5.7 12.5-12.5 12.5h-25.2c-6.8 0-12.5-5.7-12.5-12.5v-90.5c0-6.7 5.7-12.5 12.5-12.5h25.2c6.8 0 12.5 5.8 12.5 12.5v90.5zm73 0c0 6.8-5.8 12.5-12.5 12.5h-25.2c-6.8 0-12.5-5.7-12.5-12.5V267.5c0-6.8 5.7-12.5 12.5-12.5h25.2c6.8 0 12.5 5.7 12.5 12.5v107.3zm73 0c0 6.8-5.7 12.5-12.5 12.5h-25.2c-6.8 0-12.5-5.7-12.5-12.5V242c0-6.8 5.8-12.5 12.5-12.5h25.2c6.8 0 12.5 5.7 12.5 12.5v132.8zm71 0c0 6.8-5.8 12.5-12.5 12.5h-23.2c-6.8 0-12.5-5.7-12.5-12.5V191.5c0-7 5.7-12.7 12.5-12.7h23.2c6.8 0 12.5 5.8 12.5 12.7v183.3z"/></svg>