<svg xmlns="http://www.w3.org/2000/svg" viewBox="0 0 448 512"><path d="M376 225.4h9.6v29.8H376v-29.8zm0-8.5h9.6v-29.8H376v29.8zm0 76.6h9.6v-29.8H376v29.8zm-32.4-144.7h-29.8v9.3h29.8v-9.3zM376 331.9h9.6v-29.8H376v29.8zm-74.3-183.1h-29.8v9.3h29.8v-9.3zm-42 0h-29.5v9.3h29.5v-9.3zm-41.9 0h-29.5v9.3h29.5v-9.3zM376 178.6h9.6v-29.8h-29.8v9.3H376v20.5zM148.9 408.5l27.2 11.9 3.9-8.8-27.2-11.9-3.9 8.8zm35.2 15.3L211 436l3.9-8.8-26.9-11.9-3.9 8.5zM376 370.2h9.6v-29.8H376v29.8zm-297.3 7.3l27.2 11.9 3.9-8.5-27.2-12.2-3.9 8.8zm35.2 15.5l27.2 11.9 3.9-8.8-27.2-11.9-3.9 8.8zm117.6 34.2l3.9 8.8 27.2-12.2-3.9-8.5-27.2 11.9zm105.1-46.4l3.9 8.5 27.2-11.9-3.9-8.8-27.2 12.2zm-34.9 15.3l3.9 8.8 27.2-11.9-3.9-8.8-27.2 11.9zm-35.2 15.5l3.9 8.8 27.2-11.9-3.9-8.8-27.2 11.9zm35.2-341.5h-29.8v9.3h29.8v-9.3zm83.6 0h-29.5v9.3h29.5v-9.3zm-167.5 0h-29.5v9.3h29.5v-9.3zm125.8 0h-29.8v9.3h29.8v-9.3zm-83.9 0h-29.5v9.3h29.5v-9.3zM422.9 32v360.5l-201 87.5-196.8-87.5V32h397.8zM397 135.8H51v239.8l171.2 76.1L397 375.6V135.8zm0-77.9H51V110h346V57.9zM92.2 70.1H62.7v9.3h29.5v-9.3zm83.9 0h-29.8v9.3h29.8v-9.3zm-42 0h-29.8v9.3h29.8v-9.3zm6.8 210c0-44.5 36.5-81.1 81.1-81.1 44.8 0 81.1 36.5 81.1 81.1 0 44.8-36.3 81.1-81.1 81.1-44.6-.1-81.1-36.3-81.1-81.1zm107.2 16c0 11.7-21.2 12.7-29 12.7-10.9 0-26.4-2.3-31.9-13.2h-.8l-8 16.3c13.2 8.3 25.9 10.9 42 10.9 17.4 0 45.3-5.2 45.3-27.7 0-42.7-69.7-14.5-69.7-33.7 0-11.7 18.4-13.2 26.4-13.2 9.6 0 25.9 2.8 31.6 11.7h.8l7.8-15c-13.5-5.4-24.3-10.6-39.4-10.6-17.9 0-44 5.7-44 28.2 0 39.3 68.9 10.6 68.9 33.6zm-114-147.3h-29.8v9.3h29.8v-9.3zM72 158.1h20.2v-9.3H62.4v29.8H72v-20.5zm0 29h-9.6v29.8H72v-29.8zm104.1-38.3h-29.8v9.3h29.8v-9.3zM72 225.4h-9.6v29.8H72v-29.8zm0 76.7h-9.6v29.8H72v-29.8zm0-38.3h-9.6v29.8H72v-29.8zm0 76.6h-9.6v29.8H72v-29.8z"/></svg>