<svg xmlns="http://www.w3.org/2000/svg" viewBox="0 0 448 512"><path d="M218.3 217c0 27.8-24.3 50.5-54 50.5-29.8 0-54-22.8-54-50.5 0-28 24.3-50.5 54-50.5s54 22.5 54 50.5zm222.5 43.8c-16 19.8-46.5 44-93 63C397 491.5 227.5 518.3 230.3 432.3c0 1.5-.3-46.3-.3-81.8-3.7-.8-7.5-1.8-12-2.7 0 35.8-.3 86-.3 84.5 2.7 86-166.8 59.3-117.5-108.5-46.5-19-77-43.3-93-63-8-12 .8-24.8 14-15.5 1.8 1.2 3.7 2.5 5.5 3.7V75.5c0-24 18-43.5 40.3-43.5h314.3c22.3 0 40.3 19.5 40.3 43.5V249c1.8-1.2 3.5-2.5 5.2-3.7 13.2-9.3 22 3.5 14 15.5zM400 95.3c0-28.8-9.3-40-35.8-40h-278c-27.8 0-35.5 9.5-35.5 40v168.3c59.3 31 110 25.5 137.8 24.5 11.8-.3 19.3 2 23.8 6.8 1.5 1.5 8.8 8.3 17.8 15 1-13.8 8.8-22.5 29.5-21.8 28.3 1.2 80.3 6.8 140.5-26V95.3zm-110.2 71.2c-29.8 0-54 22.5-54 50.5 0 27.8 24.3 50.5 54 50.5 30 0 54-22.8 54-50.5 0-28-24-50.5-54-50.5z"/></svg>