<svg xmlns="http://www.w3.org/2000/svg" viewBox="0 0 448 512"><path d="M447 375.6c-4.6 10.6-23.8 18.5-58.9 23.9-1.8 2.4-3.3 12.9-5.7 21-1.4 4.9-4.9 7.8-10.6 7.8h-.3c-8.2 0-16.8-3.8-34-3.8-23.2 0-31.2 5.3-49.2 18-19.1 13.5-37.4 25.2-64.8 24-27.7 2-50.8-14.8-63.8-24-18.1-12.8-26.1-18-49.2-18-16.5 0-26.9 4.1-34 4.1-7.1 0-9.8-4.3-10.9-7.9-2.4-8-3.9-18.6-5.7-21.1C41.8 396.8 1 389.7 0 371.5c-.3-4.7 3.1-8.9 7.8-9.7 60.9-10 88.3-72.5 89.4-75.2.1-.2.1-.3.2-.5 3.2-6.6 4-12.1 2.2-16.4-4.4-10.4-23.5-14.1-31.5-17.3-20.8-8.2-23.6-17.6-22.4-24.1 2.1-11.2 19-18.1 28.9-13.5 7.8 3.7 14.7 5.5 20.6 5.5 4.4 0 7.2-1.1 8.7-1.9-1.8-31.4-6.2-76.4 5-101.5 29.6-66.3 92.2-71.4 110.7-71.4.8 0 8-.1 8.8-.1 45.6 0 89.5 23.4 110.9 71.4 11.2 25.1 6.8 69.8 5 101.5 1.4.8 3.8 1.7 7.5 1.9 5.6-.3 12.1-2.1 19.3-5.5 5.3-2.5 12.6-2.2 17.9.1 8.3 3 13.5 8.9 13.6 15.6.2 8.5-7.5 15.9-22.6 21.9-1.9.7-4.1 1.4-6.5 2.2-8.6 2.7-21.5 6.8-25 15.1-1.8 4.3-1.1 9.8 2.2 16.4.1.1.1.3.2.5 1.1 2.7 28.5 65.2 89.5 75.2 5.5.9 9.6 6.9 6.6 13.9z"/></svg>