<svg xmlns="http://www.w3.org/2000/svg" viewBox="0 0 448 512"><path d="M175.9 143.1c3.6-2.8 9-2.6 12 .4l148.3 146-2.4-2.4 38.7 36.1c3.2 3.1 2.9 7.8-.7 10.6L199 476.8c-8.6 6.6-15.1.7-15.1.7L2 306.6c-3.1-3.1-2.6-7.8 1.1-10.7L43 265.5c3.6-2.8 9.1-2.6 12.2.4l132.6 128.7c3.2 3 8.7 3.2 12.4.4l81.3-64.6c3.6-2.8 3.9-7.6.8-10.6l-73.3-71c-3.1-3.1-8.6-3.2-12.2-.4l-.1.1c-3.6 2.8-9.1 2.6-12.2-.4L125.1 192c-3.1-3.1-2.7-7.8.9-10.7l49.9-38.2m12.9 224.6c3.2 3 8.8 3.2 12.5.4l43.9-33.8-.3-.3 6.8-5.2c3.6-2.8 4-7.6.8-10.7l-49.8-47.5c-3.2-3.1-8.7-3.2-12.4-.4l-.1.1c-3.6 2.8-9.2 2.7-12.4-.4l-82.5-80.1c-3.1-3-2.7-7.8 1-10.6l80.4-62.4c3.6-2.8 9-2.6 12.1.4l140 138.7c3.2 3 8.7 3.2 12.3.4l40-31.2c3.6-2.8 3.9-7.6.7-10.6L197.9 34.2c-1.3-1.1-7-4.8-14.2.9L3.1 176.6c-3.7 2.8-4.2 7.6-1.1 10.7l36.9 36.4"/></svg>