<svg xmlns="http://www.w3.org/2000/svg" viewBox="0 0 496 512"><path d="M182 109.3c0-8.8 5.5-19 15.5-19 9.7 0 15.5 10.2 15.5 19 0 9-5.8 19-15.5 19-10 0-15.5-10.1-15.5-19zm266 139.9c0 31.5-10 89.5-31.7 113.5-20 21.8-76.5 53.5-105.8 61.8l-1 .3v28.5c0 14.2-11 26.7-25.5 26.7-8.8 0-17-5-21.5-12.5-4.7 7.5-13 12.5-21.7 12.5-8.8 0-17-5-21.8-12.5-4.5 7.5-12.7 12.5-21.5 12.5-9 0-17-5-21.8-12.5-4.4 7.5-12.7 12.5-21.4 12.5-16.5 0-25.8-13.7-25.8-28.7-14.2 10.7-31.3 17-49.5 17-19.3 0-38-7.2-52.7-20 9-.3 18-2 26.5-5-18.3-5-34.5-16.5-45.5-31.7 18.7 4.1 40.4 1.5 58.8-9.8-19.3-19.3-49.5-51.5-60-76.5-5-11.8-6-27.5-6-40 0-43.5 17.8-140 75.5-140 9.2 0 16.5 4.3 20.2 13 3.3-4.7 6.8-9.2 10.5-13.5 1.8-2.3 5-4.8 6.2-7.3 7-11 10.2-18.5 19-29.7 28.2-36 71.5-60.7 118-60.7 5.3 0 10.5.2 15.5 1 9.5-10.3 22.8-16 36.5-16 12.8 0 26 5.3 35 14.2.7.8 1.2 2 1.2 3 0 3.3-9 11.8-11.3 14.2 3.8 1.3 13.7 6 13.7 10.5 0 2.5-2.5 4.5-4 6.2 27.5 24.3 43.2 58.7 49.2 94.5 3.8-4.5 9-7.5 15-7.5 9.2 0 18.2 6.3 25 12.3 18.5 16.3 22.7 46.5 22.7 69.7zm-283.5-139c0 16 11 32.5 28.3 32.5 17.2 0 28.2-16.5 28.2-32.5 0-15.7-11-32.3-28.2-32.3-17.3.1-28.3 16.6-28.3 32.3zm43.5 91.6c0-17.2 3.3-34.3 7.5-51-45.5 69.6-11.8 161.5 60.3 161.5 18.7 0 37.2-6.8 52.5-17.5 1.8-6.5 3.2-13 3.2-19.8 0-12.5-5.5-18.7-18-18.7-4 0-8 .7-11.8 1.5-55.4 11-93.7 3.2-93.7-56zm-36 223c0-9.8-7.8-18.3-17.8-18.3s-17.5 8.5-17.5 18.3v28.5c0 9.8 7.5 18.5 17.5 18.5s17.8-8.5 17.8-18.5v-28.5zm43 0c0-9.8-7.5-18.3-17.5-18.3s-17.8 8.5-17.8 18.3v28.5c0 9.8 7.7 18.5 17.8 18.5 10 0 17.5-8.7 17.5-18.5v-28.5zm43.5 0c0-9.8-7.7-18.3-17.7-18.3S223 415 223 424.8v28.5c0 9.8 7.7 18.5 17.8 18.5 10 0 17.7-8.5 17.7-18.5v-28.5zm43.5 0c0-9.8-7.7-18.3-17.8-18.3-10 0-17.8 8.5-17.8 18.3v28.5c0 9.8 7.8 18.5 17.8 18.5s17.8-8.7 17.8-18.5v-28.5zm67-142.5C342 334 290 372 230.2 372c-84.5 0-140.5-74-140.5-154.5 0-14.8 1.8-29.3 5.3-43.5-17.5 29.5-26 63.5-26 97.5 0 52.7 21.7 106.5 62.5 140.7 4.5-8.5 13-14.2 22.8-14.2 8.7 0 17 5 21.5 12.5 4.7-7.5 12.7-12.5 21.8-12.5 8.7 0 17 5 21.5 12.5 4.7-7.5 13-12.5 21.8-12.5 8.7 0 17 5 21.7 12.5C267 403 275.3 398 284 398c9.5 0 18.2 5.8 22.5 14 38-31.8 60-80.5 62.5-129.7zm9.3-87.3c0-47-30.2-92.5-81-92.5-26.5 0-51.3 13.3-69 32.3-17.5 58.1-24 119.5 36.3 119.5 25.2 0 85.2-25 73.8 32.3 25.1-22.9 39.9-57.6 39.9-91.6z"/></svg>