<svg xmlns="http://www.w3.org/2000/svg" viewBox="0 0 640 512"><path d="M184.9 283.2c0 14.7-11.9 26.6-26.6 26.6s-26.6-11.9-26.6-26.6 11.9-26.6 26.6-26.6 26.6 11.9 26.6 26.6zm294.4-26.6c-14.7 0-26.6 11.9-26.6 26.6 0 14.7 11.9 26.6 26.6 26.6 14.7 0 26.6-11.9 26.6-26.6 0-14.7-11.9-26.6-26.6-26.6zm99.3 155C509 466.2 408.3 454 353.7 384.3l-34.4 51.5-34.1-51c-53.6 67.1-150.7 79.9-219.9 28.9C-5.8 361.3-21 261.1 31.4 190 24.6 167.2 14 145.7 0 126.5l100.3-.1c65.6-40.8 141.7-61.7 219-60 75.4-1.3 149.6 19.2 213.5 59.3l106.9.1c-14.1 19.4-24.8 41-31.5 64.1 52 69.6 38.9 168.1-29.6 221.7zm-290.4-127c0-70.6-57.3-127.9-127.9-127.9-70.6 0-127.9 57.3-127.9 127.9 0 70.6 57.3 127.9 127.9 127.9 70.6-.1 127.8-57.3 127.9-127.9 0 .1 0 0 0 0zM320 273c6-81.6 72.8-145.4 154.6-147.8-49-21.2-101.9-31.7-155.3-30.9-53.4-.5-106.4 9.8-155.7 30.3 82.5 1.7 150.3 66 156.4 148.4zm279.6-32c-24.4-66.3-98-100.2-164.2-75.7-66.3 24.4-100.2 98-75.7 164.2 24.5 66.2 98 100.1 164.3 75.7 66.2-24.4 100.1-97.9 75.6-164.2zm-362.2 42.2v.1c-.1 43.7-35.5 79.1-79.2 79-43.7-.1-79.1-35.5-79-79.2.1-43.7 35.5-79.1 79.2-79 43.6.2 78.9 35.5 79 79.1zm-27.3 0c-.1-28.7-23.3-51.9-52-51.9-28.6.1-51.8 23.3-51.8 52 .1 28.6 23.3 51.8 52 51.8 28.6-.1 51.8-23.3 51.8-51.9zm348.3 0c0 .1 0 .1 0 0 0 43.8-35.5 79.2-79.2 79.1-43.7 0-79.1-35.5-79.1-79.2s35.5-79.1 79.2-79.1c43.6.2 79 35.6 79.1 79.2zm-27.3 0c0-28.6-23.2-51.9-51.9-51.9-28.6 0-51.9 23.2-51.9 51.9 0 28.6 23.2 51.9 51.9 51.9s51.9-23.2 51.9-51.9z"/></svg>