<svg xmlns="http://www.w3.org/2000/svg" viewBox="0 0 496 512"><path d="M362.3 385l-76.9-228.6s12.7-.8 24.4-2.2c11.3-1.4 10-18.3-1.4-17.4-49.3 3.6-63.3 3.5-112.7 0-11.6-.8-13 16.6-1.4 17.4 10.8 1.1 22.1 2.2 22.1 2.2l33.2 90.8-46.5 139.5-77.5-230.3s12.7-.8 24.4-2.2c11.3-1.4 10-18.3-1.4-17.4-52.1 3.8-64.2 2.5-70.3 2.5 37.9-57.8 103.2-96 177.7-96 55.4 0 105.7 21.3 143.7 55.9-26.2 0-38.5 19.9-38.5 37.6 0 17.4 10.2 32.1 21 49.8 8.3 14.1 17.4 32.4 17.4 58.7.1 18.5-4.5 29.2-37.3 139.7zM43.2 256c0 84.1 49 156.9 120.1 191.5L61.7 169.4c-11.9 26.5-18.5 55.9-18.5 86.6zm216.4 18.5L195.9 460c19.1 5.8 39.3 8.9 60.1 8.9 24.9 0 48.4-4.4 70.6-12.2-.6-.8-1.1-1.9-1.4-3l-65.6-179.2zM504 256c0 136.7-111.3 248-248 248S8 392.7 8 256 119.3 8 256 8s248 111.3 248 248zm-11.3 0c0-130.4-106.3-236.7-236.7-236.7C125.6 19.3 19.3 125.6 19.3 256S125.6 492.7 256 492.7c130.4 0 236.7-106.3 236.7-236.7zm-50.1-102.1c1.1 6.9 1.7 14.1 1.7 21.9 0 21.6-5.5 45.4-16.3 76.4l-65 187.7c63.4-36.8 106-105.2 106-183.8-.2-37.2-9.8-71.8-26.4-102.2z"/></svg>