<svg xmlns="http://www.w3.org/2000/svg" viewBox="0 0 512 512"><path d="M128 208c0-4.9.7-9.7 2.1-14.1 3.8 8.3 12.1 14.1 21.9 14.1 13.3 0 24-10.7 24-24 0-9.8-5.8-18.1-14.1-21.9 4.5-1.4 9.2-2.1 14.1-2.1 26.5 0 48 21.5 48 48s-21.5 48-48 48-48-21.5-48-48zm376 48c0 137-111 248-248 248S8 393 8 256 119 8 256 8s248 111 248 248zm-400-48c0 39.7 32.3 72 72 72s72-32.3 72-72-32.3-72-72-72-72 32.3-72 72zm270.1 112H137.9c-8.1 0-12.7 9.4-7.9 16 28.7 38.9 74.5 64 126 64s97.3-25.1 126-64c4.9-6.6.2-16-7.9-16zM264 208c0 39.7 32.3 72 72 72s72-32.3 72-72-32.3-72-72-72-72 32.3-72 72zm72 48c26.5 0 48-21.5 48-48s-21.5-48-48-48c-4.9 0-9.7.7-14.1 2.1 8.3 3.8 14.1 12.1 14.1 21.9 0 13.3-10.7 24-24 24-9.8 0-18.1-5.8-21.9-14.1-1.4 4.5-2.1 9.2-2.1 14.1 0 26.5 21.5 48 48 48z"/></svg>