<svg xmlns="http://www.w3.org/2000/svg" viewBox="0 0 512 512"><path d="M0 44v264c0 6.6 5.4 12 12 12h104c6.6 0 12-5.4 12-12V44c0-6.6-5.4-12-12-12H12C5.4 32 0 37.4 0 44zm48 228c0-8.8 7.2-16 16-16s16 7.2 16 16-7.2 16-16 16-16-7.2-16-16zm264 240c-20.2 0-29.5-39.3-33.9-57.8-5.2-21.7-10.6-44.1-25.4-58.9-32.5-32.5-49.5-74-89.1-113.1-2.3-2.2-3.6-5.3-3.6-8.5V59.9c0-6.5 5.2-11.9 11.8-12 15.8-.3 36.7-9.1 52.7-16.2C256.2 17.6 295.7 0 344 0h2.8c42.8 0 93.4.4 113.8 29.7 8.4 12.1 10.4 27 6.1 44.6 16.3 17.1 25.1 48.9 16.4 74.8 17.5 23.4 19.1 56.1 9.3 79.5l.1.1c11.9 11.9 19.5 31.3 19.4 49.2-.2 30.4-26.2 58.1-59.6 58.1H350.7c7.3 28.3 33.3 52.1 33.3 94.5 0 73.5-48 81.5-72 81.5z"/></svg>