<svg xmlns="http://www.w3.org/2000/svg" viewBox="0 0 512 512"><path d="M116 224H12c-6.6 0-12 5.4-12 12v264c0 6.6 5.4 12 12 12h104c6.6 0 12-5.4 12-12V236c0-6.6-5.4-12-12-12zM64 480c-8.8 0-16-7.2-16-16s7.2-16 16-16 16 7.2 16 16-7.2 16-16 16zM384 81.5c0 42.4-26 66.2-33.3 94.5h101.7c33.4 0 59.4 27.7 59.6 58.1.1 17.9-7.5 37.2-19.4 49.2l-.1.1c9.8 23.3 8.2 56-9.3 79.5 8.7 25.9-.1 57.7-16.4 74.8 4.3 17.6 2.2 32.6-6.1 44.6-20.4 29.3-71 29.7-113.8 29.7h-2.8c-48.3 0-87.8-17.6-119.6-31.7-16-7.1-36.8-15.9-52.7-16.2-6.5-.1-11.8-5.5-11.8-12V238.3c0-3.2 1.3-6.3 3.6-8.5 39.6-39.1 56.6-80.6 89.1-113.1 14.8-14.8 20.2-37.2 25.4-58.9C282.5 39.3 291.8 0 312 0c24 0 72 8 72 81.5z"/></svg>