<svg xmlns="http://www.w3.org/2000/svg" viewBox="0 0 512 512"><path d="M192 152c-30.9 0-56 25.1-56 56s25.1 56 56 56 56-25.1 56-56-25.1-56-56-56zm0 44c-6.6 0-12 5.4-12 12s-5.4 12-12 12-12-5.4-12-12c0-19.9 16.1-36 36-36 6.6 0 12 5.4 12 12s-5.4 12-12 12zm64-140c110.5 0 200 89.5 200 200s-89.5 200-200 200S56 366.5 56 256 145.5 56 256 56m0-48C119 8 8 119 8 256s111 248 248 248 248-111 248-248S393 8 256 8zm107.3 312c13.8 0 21.2 16.4 11.9 26.7C346 379.4 303.4 400 256 400s-90-20.6-119.3-53.3c-9.2-10.3-1.9-26.7 11.9-26.7h214.7zM320 152c-30.9 0-56 25.1-56 56s25.1 56 56 56 56-25.1 56-56-25.1-56-56-56zm0 44c-6.6 0-12 5.4-12 12s-5.4 12-12 12-12-5.4-12-12c0-19.9 16.1-36 36-36 6.6 0 12 5.4 12 12s-5.4 12-12 12z"/></svg>