<svg xmlns="http://www.w3.org/2000/svg" viewBox="0 0 512 512"><path d="M498.3 225.3c4.7-22.6.9-44.5-9-63 3-23.9-4-48.6-17.3-67C471 39.4 436.1 0 359 0h-22.2c-48.7 0-83.3 7.8-128.5 26.6-35.1 14.6-32 13.4-54.4 13.4-4.4-4.9-10.8-8-17.9-8H24C10.7 32 0 42.7 0 56v272c0 13.3 10.7 24 24 24h112c13.3 0 24-10.7 24-24v-8c10.6 0 46.2 58.1 71.5 83.4 13.7 13.7 10.2 108.6 71.8 108.6 57.6 0 95.3-31.9 95.3-104.7 0-18.4-3.9-33.7-8.9-46.5h36.5c48.6 0 85.8-41.6 85.8-85.6 0-19.2-5-35-13.7-49.9zM112 304H48V80h64v224zm314.2 8.7h-104c0 37.8 28.4 55.4 28.4 94.5 0 23.8 0 56.7-47.3 56.7-18.9-18.9-9.5-66.2-37.8-94.5-26.6-26.6-66.2-97.5-94.5-97.5h-11V85.8c53.6 0 100-37.8 171.6-37.8h37.8c35.5 0 60.8 17.1 53.1 65.9 15.2 8.2 26.5 36.4 13.9 57.6 21.6 20.4 18.7 51.1 5.2 65.6 9.4 0 22.4 18.9 22.3 37.8 0 18.9-16.6 37.8-37.7 37.8z"/></svg>