<svg xmlns="http://www.w3.org/2000/svg" viewBox="0 0 512 512"><path d="M498.3 286.7C507 271.8 512 256 512 236.8c0-44-37.2-85.6-85.8-85.6h-36.5c4.9-12.8 8.8-28.1 8.8-46.5C398.5 31.9 360.9 0 303.3 0c-61.6 0-58.1 94.9-71.8 108.6-22.7 22.7-49.6 66.4-68.8 83.4H24c-13.3 0-24 10.7-24 24v272c0 13.3 10.7 24 24 24h112c13.3 0 24-10.7 24-24v-16c16 0 16 0 48.3 13.4 45.2 18.8 79.8 26.6 128.5 26.6H359c77.1 0 112-39.4 112.9-95.3 13.3-18.4 20.3-43.1 17.3-67 9.9-18.5 13.7-40.4 9.1-63zM112 464H48V240h64v224zm324.5-123.5c12.6 21.1 1.3 49.4-13.9 57.6 7.7 48.8-17.6 65.9-53.1 65.9h-37.8c-71.6 0-118-37.8-171.6-37.8V240H171c28.4 0 68-70.9 94.5-97.5 28.4-28.4 18.9-75.6 37.8-94.5 47.3 0 47.3 33 47.3 56.7 0 39.2-28.4 56.7-28.4 94.5h104c21.1 0 37.7 18.9 37.8 37.8.1 18.9-12.8 37.8-22.3 37.8 13.5 14.7 16.4 45.3-5.2 65.7z"/></svg>