<svg xmlns="http://www.w3.org/2000/svg" viewBox="0 0 512 512"><path d="M423.3 291l-21.1-6c21.3-29.6 33.8-66.1 33.8-105C436 80.6 355.4 0 256 0S76 80.6 76 180c0 38.6 12.3 75.2 33.8 105l-21.1 6C36.2 306 0 353.9 0 408.6v25.7C0 477.1 34.9 512 77.7 512h356.6c42.9 0 77.7-34.9 77.7-77.7v-25.7c0-54.8-36.3-102.6-88.7-117.6zM124 180c0-72.9 59.1-132 132-132s132 59.1 132 132-59.1 132-132 132-132-59.1-132-132zm340 254.3c0 16.4-13.3 29.7-29.7 29.7H77.7C61.3 464 48 450.7 48 434.3v-25.7c0-33.2 22-62.3 53.9-71.4L148 324c29.9 22.5 67.6 36 108 36 40.4 0 78.1-13.4 108-36l46.1 13.2c31.9 9.1 53.9 38.3 53.9 71.4v25.7z"/></svg>